# xmcd CD database file
# Copyright (C) 1993-1998 Ti Kan
# 
# Track frame offsets:
#     182
#     42245
#     105122
# 
# Disc length: 2724 seconds
# 
# Revision: 1
# Processed by: cddbd v1.4b41PL1 Copyright (c) Steve Scherf et al.
# Submitted via: DiscPlay 4.0.4
# 
DISCID=160aa203
DTITLE=James Brown - Hooked On Brown
DYEAR=1900
DGENRE=
TTITLE0=The Platinum Hits Medley
TTITLE1=Ready To Party Now Medley
TTITLE2=The Godfather Of Soul Powerhouse Medley
EXTD=
EXTT0=
EXTT1=
EXTT2=
PLAYORDER=
